# xmcd CD database file
#
# Track frame offsets:
#	150
#	10547
#	28117
#	38816
#	60920
#	73710
#	86742
#	101927
#	116922
#	133490
#	154895
#	165155
#	181272
#	199625
#	214027
#	227395
#	241647
#	258180
#	270002
#	281447
#
# Disc length: 3934 seconds
#
# Revision: 4
# Processed by: cddbd v1.5.2PL0 Copyright (c) Steve Scherf et al.
# Submitted via: CDex 1.79
#
DISCID=020f5c14
DTITLE=DREAMGIRLS SOUNDTRACK - DREAMGIRLS
DYEAR=2006
DGENRE=Soundtrack
TTITLE0=MOVE
TTITLE1=FAKE YOUR WAY TO THE TOP
TTITLE2=CADILLAC CAR
TTITLE3=STEPPIN' TO THE BAD SIDE
TTITLE4=LOVE YOU I DO
TTITLE5=I WANT YOU BABY
TTITLE6=FAMILY
TTITLE7=DREAMGIRLS
TTITLE8=IT'S ALL OVER
TTITLE9=AND I AM TELLING YOU I'M NOT GOING
TTITLE10=WHEN I FIRST SAW YOU
TTITLE11=PATIENCE
TTITLE12=I AM CHANGING
TTITLE13=I MEANT YOU NO HARM/JIMMY'S RAP
TTITLE14=ONE NIGHT ONLY
TTITLE15=ONE NIGHT ONLY (DISCO)
TTITLE16=LISTEN
TTITLE17=HARD TO SAY GOODBYE
TTITLE18=DREAMGIRLS (FINALE)
TTITLE19=WHEN I FIRST SAW YOU(DUET)
EXTD=YEAR: 2006
EXTT0=
EXTT1=
EXTT2=
EXTT3=
EXTT4=
EXTT5=
EXTT6=
EXTT7=
EXTT8=
EXTT9=
EXTT10=
EXTT11=
EXTT12=
EXTT13=
EXTT14=
EXTT15=
EXTT16=
EXTT17=
EXTT18=
EXTT19=
PLAYORDER=
